SplineFontDB: 3.2
FontName: libredona-digits
FullName: LibreDona digits
FamilyName: LibreDona
Weight: Regular

StartChar: uni06F4
Encoding: 1780 1780 4
GlifName: uni06F_4
Width: 500
VWidth: 750
Flags: MW
LayerCount: 2
Fore
SplineSet
50 600 m 1
 150 600 l 1
 150 450 l 1
 250 450 l 1
 250 600 l 1
 400 600 l 1
 400 500 l 1
 350 500 l 1
 350 450 l 1
 450 450 l 1
 450 350 l 1
 150 350 l 1
 150 0 l 1
 50 0 l 1
 50 600 l 1
EndSplineSet
Validated: 1
EndChar

StartChar: uni06F5
Encoding: 1781 1781 5
GlifName: uni06F_5
Width: 500
VWidth: 750
Flags: MW
LayerCount: 2
Fore
SplineSet
50 600 m 1
 150 600 l 1
 150 550 l 1
 450 550 l 1
 450 0 l 1
 50 0 l 1
 50 600 l 1
150 450 m 1
 150 100 l 1
 200 100 l 1
 200 150 l 1
 300 150 l 1
 300 100 l 1
 350 100 l 1
 350 450 l 1
 150 450 l 1
EndSplineSet
Validated: 1
EndChar

StartChar: uni06F6
Encoding: 1782 1782 6
GlifName: uni06F_6
Width: 450
VWidth: 750
Flags: MW
LayerCount: 2
Fore
SplineSet
50 600 m 1
 150 600 l 1
 150 450 l 1
 300 450 l 1
 300 600 l 1
 400 600 l 1
 400 0 l 1
 300 0 l 1
 300 350 l 1
 50 350 l 1
 50 600 l 1
EndSplineSet
Validated: 1
EndChar

StartChar: uni06F0
Encoding: 1776 1776 10
GlifName: uni06F_0
Width: 400
VWidth: 750
Flags: MW
LayerCount: 2
Fore
SplineSet
50 300 m 1
 350 300 l 1
 350 0 l 1
 50 0 l 1
 50 300 l 1
150 200 m 1
 150 100 l 1
 250 100 l 1
 250 200 l 1
 150 200 l 1
EndSplineSet
Validated: 1
EndChar

StartChar: uni066B
Encoding: 1643 1643 12
GlifName: uni066B_
Width: 200
VWidth: 750
Flags: MW
LayerCount: 2
Fore
SplineSet
100 100 m 1
 150 100 l 1
 150 -100 l 1
 100 -100 l 1
 100 -200 l 1
 50 -200 l 1
 50 0 l 1
 100 0 l 1
 100 100 l 1
EndSplineSet
Validated: 1
EndChar

StartChar: hyphen
Encoding: 45 45 13
GlifName: hyphen
Width: 400
VWidth: 750
Flags: MW
LayerCount: 2
Fore
SplineSet
50 200 m 1
 350 200 l 1
 350 100 l 1
 50 100 l 1
 50 200 l 1
EndSplineSet
Validated: 1
EndChar

StartChar: plus
Encoding: 43 43 14
GlifName: plus
Width: 400
VWidth: 750
Flags: MW
LayerCount: 2
Fore
SplineSet
150 300 m 1
 250 300 l 1
 250 200 l 1
 350 200 l 1
 350 100 l 1
 250 100 l 1
 250 0 l 1
 150 0 l 1
 150 100 l 1
 50 100 l 1
 50 200 l 1
 150 200 l 1
 150 300 l 1
EndSplineSet
Validated: 1
EndChar

StartChar: equal
Encoding: 61 61 15
GlifName: equal
Width: 400
VWidth: 750
Flags: MW
LayerCount: 2
Fore
SplineSet
50 300 m 1
 350 300 l 1
 350 200 l 1
 50 200 l 1
 50 300 l 1
50 100 m 1
 350 100 l 1
 350 0 l 1
 50 0 l 1
 50 100 l 1
EndSplineSet
Validated: 1
EndChar

StartChar: zero
Encoding: 48 48 16
GlifName: zero
Width: 500
VWidth: 750
Flags: MW
LayerCount: 2
Fore
SplineSet
50 600 m 1
 450 600 l 1
 450 0 l 1
 50 0 l 1
 50 600 l 1
150 500 m 1
 150 100 l 1
 350 100 l 1
 350 500 l 1
 150 500 l 1
EndSplineSet
Validated: 1
EndChar

StartChar: one
Encoding: 49 49 17
GlifName: one
Width: 200
VWidth: 750
Flags: MW
LayerCount: 2
Fore
SplineSet
50 600 m 1
 150 600 l 1
 150 0 l 1
 50 0 l 1
 50 600 l 1
EndSplineSet
Validated: 1
EndChar

StartChar: two
Encoding: 50 50 18
GlifName: two
Width: 500
VWidth: 750
Flags: MW
LayerCount: 2
Fore
SplineSet
50 600 m 1
 450 600 l 1
 450 200 l 1
 150 200 l 1
 150 100 l 1
 450 100 l 1
 450 0 l 1
 50 0 l 1
 50 300 l 1
 350 300 l 1
 350 500 l 1
 150 500 l 1
 150 400 l 1
 50 400 l 1
 50 600 l 1
EndSplineSet
Validated: 1
EndChar

StartChar: three
Encoding: 51 51 19
GlifName: three
Width: 500
VWidth: 750
Flags: MW
LayerCount: 2
Fore
SplineSet
50 600 m 1
 450 600 l 1
 450 0 l 1
 50 0 l 1
 50 100 l 1
 350 100 l 1
 350 250 l 1
 150 250 l 1
 150 350 l 1
 350 350 l 1
 350 500 l 1
 50 500 l 1
 50 600 l 1
EndSplineSet
Validated: 1
EndChar

StartChar: four
Encoding: 52 52 20
GlifName: four
Width: 500
VWidth: 750
Flags: MW
LayerCount: 2
Fore
SplineSet
50 600 m 1
 150 600 l 1
 150 400 l 1
 350 400 l 1
 350 600 l 1
 450 600 l 1
 450 0 l 1
 350 0 l 1
 350 300 l 1
 50 300 l 1
 50 600 l 1
EndSplineSet
Validated: 1
EndChar

StartChar: five
Encoding: 53 53 21
GlifName: five
Width: 500
VWidth: 750
Flags: MW
LayerCount: 2
Fore
SplineSet
50 600 m 1
 450 600 l 1
 450 500 l 1
 150 500 l 1
 150 400 l 1
 450 400 l 1
 450 0 l 1
 50 0 l 1
 50 200 l 1
 150 200 l 1
 150 100 l 1
 350 100 l 1
 350 300 l 1
 50 300 l 1
 50 600 l 1
EndSplineSet
Validated: 1
EndChar

StartChar: six
Encoding: 54 54 22
GlifName: six
Width: 500
VWidth: 750
Flags: MW
LayerCount: 2
Fore
SplineSet
50 600 m 1
 450 600 l 1
 450 500 l 1
 150 500 l 1
 150 400 l 1
 450 400 l 1
 450 0 l 1
 50 0 l 1
 50 600 l 1
150 300 m 1
 150 100 l 1
 350 100 l 1
 350 300 l 1
 150 300 l 1
EndSplineSet
Validated: 1
EndChar

StartChar: seven
Encoding: 55 55 23
GlifName: seven
Width: 450
VWidth: 750
Flags: MW
LayerCount: 2
Fore
SplineSet
50 500 m 1
 50 600 l 1
 400 600 l 1
 400 0 l 1
 300 0 l 1
 300 500 l 1
 50 500 l 1
EndSplineSet
Validated: 1
EndChar

StartChar: eight
Encoding: 56 56 24
GlifName: eight
Width: 500
VWidth: 750
Flags: MW
LayerCount: 2
Fore
SplineSet
50 600 m 1
 450 600 l 1
 450 0 l 1
 50 0 l 1
 50 600 l 1
150 500 m 1
 150 400 l 1
 350 400 l 1
 350 500 l 1
 150 500 l 1
150 300 m 1
 150 100 l 1
 350 100 l 1
 350 300 l 1
 150 300 l 1
EndSplineSet
Validated: 1
EndChar

StartChar: nine
Encoding: 57 57 25
GlifName: nine
Width: 500
VWidth: 750
Flags: MW
LayerCount: 2
Fore
SplineSet
50 600 m 1
 450 600 l 1
 450 0 l 1
 50 0 l 1
 50 100 l 1
 350 100 l 1
 350 200 l 1
 50 200 l 1
 50 600 l 1
150 500 m 1
 150 300 l 1
 350 300 l 1
 350 500 l 1
 150 500 l 1
EndSplineSet
Validated: 1
EndChar

StartChar: period
Encoding: 46 46 26
GlifName: period
Width: 300
VWidth: 750
Flags: MW
LayerCount: 2
Fore
SplineSet
50 200 m 1
 250 200 l 1
 250 0 l 1
 50 0 l 1
 50 200 l 1
EndSplineSet
Validated: 1
EndChar

StartChar: uni0660
Encoding: 1632 1632 27
Width: 300
VWidth: 750
Flags: MW
LayerCount: 2
Fore
SplineSet
50 200 m 1
 250 200 l 1
 250 0 l 1
 50 0 l 1
 50 200 l 1
EndSplineSet
Validated: 1
EndChar

StartChar: uni0661
Encoding: 1633 1633 28
Width: 200
VWidth: 750
Flags: MW
LayerCount: 2
Fore
SplineSet
50 600 m 1
 150 600 l 1
 150 0 l 1
 50 0 l 1
 50 600 l 1
EndSplineSet
Validated: 1
EndChar

StartChar: uni0662
Encoding: 1634 1634 29
Width: 450
VWidth: 750
Flags: MW
LayerCount: 2
Fore
SplineSet
50 600 m 1
 150 600 l 1
 150 450 l 1
 300 450 l 1
 300 600 l 1
 400 600 l 1
 400 350 l 1
 150 350 l 1
 150 0 l 1
 50 0 l 1
 50 600 l 1
EndSplineSet
Validated: 1
EndChar

StartChar: uni0663
Encoding: 1635 1635 30
Width: 500
VWidth: 750
Flags: MW
LayerCount: 2
Fore
SplineSet
50 600 m 1
 150 600 l 1
 150 450 l 1
 200 450 l 1
 200 550 l 1
 300 550 l 1
 300 450 l 1
 350 450 l 1
 350 600 l 1
 450 600 l 1
 450 350 l 1
 150 350 l 1
 150 0 l 1
 50 0 l 1
 50 600 l 1
EndSplineSet
Validated: 1
EndChar

StartChar: uni0664
Encoding: 1636 1636 31
Width: 400
VWidth: 750
Flags: HMW
LayerCount: 2
Fore
SplineSet
350 600 m 1
 350 500 l 1
 150 500 l 1
 150 350 l 1
 300 350 l 1
 300 250 l 1
 150 250 l 1
 150 100 l 1
 350 100 l 1
 350 0 l 1
 50 0 l 1
 50 600 l 1
 350 600 l 1
EndSplineSet
Validated: 1
EndChar

StartChar: uni0665
Encoding: 1637 1637 32
Width: 500
VWidth: 750
Flags: MW
LayerCount: 2
Fore
SplineSet
50 600 m 1
 150 600 l 1
 150 550 l 1
 450 550 l 1
 450 0 l 1
 50 0 l 1
 50 600 l 1
350 100 m 1
 350 450 l 1
 150 450 l 1
 150 100 l 1
 350 100 l 1
EndSplineSet
Validated: 1
EndChar

StartChar: uni0666
Encoding: 1638 1638 33
Width: 400
VWidth: 750
Flags: MW
LayerCount: 2
Fore
SplineSet
350 600 m 1
 350 0 l 1
 250 0 l 1
 250 500 l 1
 50 500 l 1
 50 600 l 1
 350 600 l 1
EndSplineSet
Validated: 1
EndChar

StartChar: uni0667
Encoding: 1639 1639 34
Width: 500
VWidth: 750
Flags: MW
LayerCount: 2
Fore
SplineSet
50 600 m 1
 150 600 l 1
 150 100 l 1
 350 100 l 1
 350 600 l 1
 450 600 l 1
 450 0 l 1
 50 0 l 1
 50 600 l 1
EndSplineSet
Validated: 1
EndChar

StartChar: uni0668
Encoding: 1640 1640 35
Width: 500
VWidth: 750
Flags: MW
LayerCount: 2
Fore
SplineSet
50 600 m 1
 450 600 l 1
 450 0 l 1
 350 0 l 1
 350 500 l 1
 150 500 l 1
 150 0 l 1
 50 0 l 1
 50 600 l 1
EndSplineSet
Validated: 1
EndChar

StartChar: uni0669
Encoding: 1641 1641 36
Width: 400
VWidth: 750
Flags: MW
LayerCount: 2
Fore
SplineSet
50 600 m 1
 350 600 l 1
 350 0 l 1
 250 0 l 1
 250 350 l 1
 50 350 l 1
 50 600 l 1
150 500 m 1
 150 450 l 1
 250 450 l 1
 250 500 l 1
 150 500 l 1
EndSplineSet
Validated: 1
EndChar

